User Type,Username,Date,Text
,Duce11,2010-12-18T12:10Z,"To anyone who tried the last upload I did on this, I added the wrong file folder on accident, this one is the proper working one. Sorry about the trouble."
,puppyup,2011-01-08T07:51Z,"Thanks for upload. Good quality & good series!

http://img267.imageshack.us/img267/3529/007157074959.jpg
http://img411.imageshack.us/img411/6513/023161075008.jpg
http://img258.imageshack.us/img258/2919/053077075023.jpg
http://img258.imageshack.us/img258/1934/061268075026.jpg
http://img249.imageshack.us/img249/6713/082991075038.jpg

Overall bit rate                 : 1 135 Kbps

Video
ID                               : 0
Format                           : MPEG-4 Visual
Format settings, BVOP            : Yes
Format settings, QPel            : No
Format settings, GMC             : No warppoints
Format settings, Matrix          : Default (H.263)
Muxing mode                      : Packed bitstream
Codec ID                         : DX50
Codec ID/Hint                    : DivX 5
Duration                         : 57mn 25s
Bit rate                         : 999 Kbps
Width                            : 640 pixels
Height                           : 352 pixels
Display aspect ratio             : 16:9
Frame rate                       : 25.000 fps
Color space                      : YUV
Chroma subsampling               : 4:2:0
Bit depth                        : 8 bits
Scan type                        : Progressive
Compression mode                 : Lossy
Bits/(Pixel*Frame)               : 0.177
Stream size                      : 410 MiB (88%)
Writing library                  : DivX 5.1.1 (Maupiti) (UTC 2003-11-19)

Audio
ID                               : 1
Format                           : MPEG Audio
Format version                   : Version 1
Format profile                   : Layer 3
Codec ID                         : 55
Codec ID/Hint                    : MP3
Duration                         : 57mn 31s
Bit rate mode                    : Constant
Bit rate                         : 128 Kbps
Channel(s)                       : 2 channels
Sampling rate                    : 44.1 KHz
Compression mode                 : Lossy
Stream size                      : 52.6 MiB (11%)
Alignment                        : Split accross interleaves
Interleave, duration             : 40 ms (1.00 video frame)
Interleave, preload duration     : 500 ms"
